/* XPM */
static char *jungle_4[] = {
/* columns rows colors chars-per-pixel */
"64 64 11 1 ",
"  c #1F0E1C",
". c #200E1C",
"X c #200E1D",
"o c #3E2137",
"O c #647D34",
"+ c #17434B",
"@ c #9D303B",
"# c #9A6348",
"$ c #C0C741",
"% c #34859D",
"& c #7EC4C1",
/* pixels */
"                                                                ",
"                                                                ",
"                                                                ",
"                                                                ",
"                                                                ",
"                                                                ",
"                                                                ",
"                                                                ",
"                                                                ",
"                                o                               ",
"                                 ooo                            ",
"                                   oooo                         ",
"                                     oooo                       ",
"                                       ooo         o            ",
"                                         ooo      oo            ",
"                                          ooo     o             ",
"                                           ooo    o             ",
"                    oo                      oo   o              ",
"      oo           oo                       ooo oo              ",
"      oo          oo                        ooooo               ",
"       oo        oo                          oooo    o          ",
"        oo      oo                           ooo     o          ",
"         o     oo                            ooo     o          ",
"         oo   oo                              oo    oo          ",
"          o  ooo                              oo    o           ",
"          oo oo                               oo   oo           ",
"          ooooo                               oo  oo            ",
"          oooo                                oo  oo            ",
"          oooo                                oo ooo            ",
"          oooo                                oo oo             ",
"           ooo                      O         ooooo             ",
"           ooo                     OOO        ooooo             ",
"           ooo        OO O        OOO#        oooo  .           ",
"           ooo        OO#OO        O##        oooo    OO        ",
"           ooo        OOO#o       o##OOO      oooo   OOOO       ",
"           oooo        OO##o      o##OOO      ooooO  OOO        ",
"           oooo          o#o     O##OOO      ooooOOO  ##        ",
"           oooo           o#o   OO##         oooooOOo #o        ",
"           ooooo          o##o   O#o        ooooooOO# #o        ",
"            oooo           o#o   ##o        oooooo  #o#o        ",
"            oooo           o##o  ##o        oooooo  o##o        ",
"            ooooo           o#o ###o        oooooo  o##o        ",
"            ooooo           o##o###o        oooooo  o##o        ",
"            ooooo           OO#####o        oooooo  o##o        ",
"             ooooo         OOOO####o        OOOooo  o##O        ",
"             ooooo          OO#####OO      O$OOOoo  o##O X      ",
"             ooOooo           o####O      OOOOOOoo  O#O         ",
"             OOOOOo           o####O     OOOOOOO$o o###o        ",
"             oOOOooo           o####o    O$OOO%OO$ o###o        ",
"             oOOoooo           o####o   +OOOOO%%OOOo###o        ",
"             o#Ooooo           o#####o  %OOOOO%%%OOo##o         ",
"            o##ooooo            o####o +%%@O$@%%%O+o##o         ",
"          OOo##OOoooo           o####o+%%%@$OO%%%++o##o         ",
"         OOO##OOOoooo           o#####+%%%$O%O++++++##o         ",
"          OO##OOOooooo  O       o####O+@%%$@@O%%%%%+##o         ",
"          o##oooooooOo  O        o###O++@$%O%%%%%%%+##o         ",
"         o###ooooooooO OO        o##$O+++$%O%%%%%%%%##o         ",
"         o##o ooooooooOOO        o$$O%@++$+@%%%%%%%%##o         ",
"        o###o ooooooooOO$$&      OOO+%%@@$@%%%$OO%&%##O         ",
"        o###o oooOoOOOOOOO&&    OOOO%+%%$%%%%%OOO&%%+o#O        ",
"   O  %%&##O oooOoOOOOO%%O%%& +OOOOO%@@%$%%%%OOO&%%+++ O        ",
" O O %%%%&#OOooOo%O%%OO%%%%%%%+OO+O%%%%@$@@%OOO%%%+++%% O O     ",
"  OO+%%%%%%#OOOoo%%%%%O+++%%%%%%++++%%%$@%O%%%%%++++%%%%OO      ",
"  OO++++%%%OOOO+++%%%%%%%%%%%%%%%%++++%$%OO%%%%%%%%%%%%%O       "
};

