/* XPM */
static char *jungle_1[] = {
/* columns rows colors chars-per-pixel */
"64 64 14 1 ",
"  c black",
". c #1F0E1C",
"X c #3E2137",
"o c #647D34",
"O c #70377F",
"+ c #17434B",
"@ c #9D303B",
"# c #9A6348",
"$ c #D26471",
"% c #E4943A",
"& c #D79B7D",
"* c #C0C741",
"= c #34859D",
"- c #F5EDBA",
/* pixels */
"*****oo**oooo***ooo*oooo***o**ooooo**.****oooo***oo**ooooo**oo**",
"****ooo**oooo**ooooo*oo****oo*oo..**oo..**oooo****o**oooo**oo***",
"*.ooooo*ooo.***...*o*oo***ooo**...**ooo..*oooo.***ooooo*oooo.***",
"#Xoooo**oo..**...oooo*.**.........ooooo*.*ooo...***ooo**o....***",
"#Xooo..*o...**.oooo@@o..*........o.oooo***ooo*..***ooo***....**#",
"#*ooo...o...*.ooooo@@@o.**...%%*o...oooo***o**...**oo.***....**#",
"#***o.........ooooo@X@@o.*..%&%oo%..oooo.**oo**..*..oo.**...o**#",
"#X**oo.......ooooo@@@@@o...%&%%%%%%..ooooX*ooo*..*.....**...o**#",
"#X**ooo......ooooo@X@X@o...%&%%%%%%..***#X.*oo*........*...%oo**",
"##.*oooo.....ooooo@@@@@o...%%%%%%%%.***.##******..........%%ooo#",
"##X*ooOOOO...oooooX@X@o....%%%%%%%%***..##*****..........%%%ooo#",
"##X.oOOOOOO...ooo@@@@@o.....%%%%%%o**...##X.***.........%%%%%ooo",
"##o.XOOOOOOO..ooo@@X@o.......%%%%oo**...X###.**.........%%%%%X#o",
"ooX.XOOOOOOOO...ooooo..........oooo**...X###.**.........%%%%%X##",
"##X.XOOOOOOOO..................ooo.**...X###.**..........%%..X#o",
"##X..XOOOOOOOO.................ooo..*....X##..*..............oo$",
"$#X..XOOOOOOOO...................o...*...X##X...............oX$%",
"###..XXOOOOOOO...........................X##X................X#$",
"###o..XXOOOOO............................X##X................X##",
"#ooX....XXXX.............................X###X...............X##",
"o##X.........@@..........................X###X...............X##",
"o$#X.........@==.........................X###X................oo",
"$%$X.........@@....................####...X##X...............oX#",
"#$#X........=@@=..................##---#..X##X...............oX#",
"###X........=@@=..................##---#..X##X................X#",
"###X........=@@=...o..............##----..X##X................X#",
"###Xo.......=@@=..oo..............##----.--###X...............X#",
"#$##Xo.......@@..ooo...............####..#-###X...............X#",
"$$#oo.......XXXXXoo................#######X###X...............X#",
"$oo#X....ooo###XX...................####..X###X...............X#",
"o###X...oo**##Xooo..................####..X###X...............Xo",
"o###X.XXo*##XX..oo..................#######-##X...............o#",
"o#o#XX###*XX.@..oo...................######-##X..............oX#",
"ooo######**..@......................#####..X##X..............oX#",
"#######XX**..@.....................#.......X##X...............X#",
"######X.......................#...#........X##X...............X#",
"#####X........................#..#.........X###X..............X#",
"#####X.........................##..........X###X..............X#",
"#####X.....................................X###X..............XX",
"#####X.....................................X###X...............X",
"#####X.....................................X###X...............X",
"#####X......................................X##X...............X",
"#####X..................................@.@.X##X...............X",
"#$###Xo...%.%...........................@@@.X##X...............X",
"$%$##X%....%%...%........................@..@#@X...............X",
"#$o##%%....@%..$@........................o..@@@X...............X",
"#oo#%%%....@$..$@.......................oo*.X@#X...............X",
"#o####%....@$..$@.......................oo*.Xo##X..............X",
"#o###o@....@$.$@........................oo*.oo*#X..............X",
"#oo$o#$@...@$.$@....................@...oo*.oo*#X..............X",
"#o$%$#$@...@$.$@....................o...ooo+oo*#X..............X",
"o##$##X$@..@$.$@..%................oo+..oo++oo*#X..............X",
"######X$@..@$.$@..%%...............oo++.oo++=o*#X..............o",
"######X.$@.@$.@...@................oo==+oo++=o*#X..#*.........oX",
"######X.$@..@.@..$@................oo==+oo+==o*#X..o#*........oX",
"#######X.$@.@$@.$@.................oo===oo===oooX..oo#*........X",
"#######X.$@.@$@.$@...............=+ooo=$oo$ooooo#X.oo#*........X",
"#######X@.$.@$@$@.................=+ooo$oo$ooooo#X.ooo#*.......X",
"oo#####X$@$@@$@$@..................=+oo$oo$ooooo#X.ooo#*.....ooo",
"##o####X.$.$@@.$@..o...............o$oo$oo$ooooo#X..oo#*...oo###",
"**###o#X.$@$@@$@...o.o..o.*o.......oo$o$oo$ooooo#X..ooo#*.o##***",
"####o##X..$@@@$@...o*o..o*o......=++oo$$$$$ooooo#X...oo#oo#*****",
"##o#oooX..$@@@@.....*..o*o..o.....==+$$$$$$ooooo#X....ooo#****.X",
"##o*o##X...$@@@....oo*.oo..*o......ooo$$$$$ooooo#X.....o#***...X"
};

