/* XPM */
static char *jungle_3[] = {
/* columns rows colors chars-per-pixel */
"64 64 7 1 ",
"  c #1F0E1C",
". c #647D34",
"X c #9D303B",
"o c #9A6348",
"O c #C0C741",
"+ c #34859D",
"@ c #F5EDBA",
/* pixels */
"      .   OOOO  .            OOOO           .            .      ",
"      .   OOOO  .           ......         O.            .      ",
"      .O  OOOO  .            OOOO    ..     .            .      ",
"      .   OOOO  .        .   OOOO   ...     .            .      ",
"     O.   OOOO  .        ..  OOOO  ...      .            .      ",
"      .   OOOO  .         .. OOOO ...       .            .O     ",
"      .  ......  .         ..OOOO...        .            .      ",
"      .   OOOO   .          .OOOO..         .O           .      ",
"      .   OOOO   .           OOOO            .           .      ",
"      .   OOOO   .           OOOO            .           .      ",
"       .  OOOO   .          ......           .           .      ",
"       .  OOOO   .           OOOO            .           .      ",
"       .  OOOO   .           OOOO            .           .      ",
"       .O OOOO  O.           OOOO           O.           .      ",
"       .  OOOO   .           OOOO            .            .     ",
"      O.  OOOO   .           OOOO            .            .     ",
"       .  OOOO   .           OOOO            .            .     ",
"       . ......   .          OOOO            O            .     ",
"       .  OOOO    O          OOOO            .            .     ",
"       .  OOOO    .          OOOO            .           O.     ",
"       .  OOOO    .          OOOO            .            .     ",
"       .  OOOO    .         ......           .            .     ",
"       .  OOOO    .          OOOO            .O           .     ",
"       .  OOOO    .          OOOO             .           .     ",
"       .  OOOO    O        ooooOO             .           .     ",
"      .   OOOO    .       +oo+ooO             .           .     ",
"      .  .OOOO    .       ooooooo             .           .     ",
"      .  .OOOO    .       @ @Ooooo            .           .     ",
"      .  .OOOO   O.        . OOOoo            O           .     ",
"      .   OOOO   .         ..OOOOo ..         .           .     ",
"     O.  ......  .         ..OOOOo...         .           .     ",
"      .   OOOO   .      .   .OOOOo..          .          O.     ",
"      .   OOOO   .      ...  OOOO..           .          .      ",
"      .   OOOO   .       ... OOOO             .O         .      ",
"      .O  OOOO   .        ........            .          .      ",
"      .   OOOO   .          oOOOO             .          .      ",
"      .   OOOO . .         ooOOOO             .          .      ",
"     .    OOOO.. .         ooOOOO             .          O      ",
"     .    OOOO.. .         ooOOOO             .          .      ",
"     .    OOOO.  .          ooOOO            O.          .      ",
"     .    OOOO   .          ooooO            .           .      ",
"     .   ......  .           oooo            .          .O      ",
"     .    OOOO  O.           Ooooo           .          .       ",
"          OOOO  .O           OOOoo           .          .       ",
"          OOOO  .            OOOOo           .          .       ",
"          OOOO  .           ......           .          .       ",
"      .   OOOO  .            OOOO            .                  ",
"      ..  OOOO  .           oOOOO            .                  ",
"      ... OOOO  .           oOOOO            .                  ",
"       ...OOOO  .           oooOO            .                  ",
"        ..OOOO               oooO                               ",
"         .OOOO               OooO                               ",
"          OOOO          X    OooO                               ",
"          OOOO         XXX   ooOO                               ",
"         ......  O     .X   ooOOO                      X        ",
"         XOOOO  OOO   ....   OOOO               O     XXX       ",
"        XXXOOO  OOO  .....   OOOO               OOO    X.       ",
"         X..OO OOOOO......   OOOO        OO      OOO   ...      ",
"         ..... OOOOOO..... O OO.O       OO       OOOO.....      ",
"    X     .....OOOOOO..... O O...  X.  OOO       OOOOO...   O . ",
"  OXXX    O....OOOOOOO... OOO.... XXX.OOOO  .O    OOOOO.   OO.. ",
" OOOX..O  OO....OOOOOO... OOOO....OX ..OOO...OO.. OOOOOO  OOO...",
".OOO..OO..O..O...OOOO.... OOOOO..OOO...OO....OO.O..OOOOO..OOOO..",
".OO...OOOO....OO...OO......OOOOO.OOOO..O...OOOOOO....OO...OOO..."
};

