/* XPM */
static char *jungle_2[] = {
/* columns rows colors chars-per-pixel */
"64 64 12 1 ",
"  c #1F0E1C",
". c #3E2137",
"X c #647D34",
"o c #584563",
"O c #9D303B",
"+ c #9A6348",
"@ c #E4943A",
"# c #D79B7D",
"$ c #C0C741",
"% c #34859D",
"& c #8C8FAE",
"* c #F5EDBA",
/* pixels */
"$$$XXX$$XXXXXXXXX$$$$$XXXXXXXXXX$$XXXXXXX$$$XXX$$$XXX$$XXXX$$$$$",
"XXXXXXXXXXXXXX$XXXX$$$XXXXXXXOOXX$XXXXXXX$$XXXXX$XXXX$$X$XXX$$$$",
"XXX$XXOOXXX$$X$XXXX$$XXXXXXXXOOXXXXXXX$XXX$XXXXXXXXXX$$XXXXX$XXX",
"XX$$$XOOX$$$XX$$XXXXXXXXXOOX$$XXXXXXXX$XXXXXOOX$XXXXXXXOOXXX$$XX",
"OO$$$XXXX$$$$XX$$X XX X$XOOX$$XXXX$XXXXXXXXXOOX$X $X$XXOOXXXX$XX",
"OO$$$$XX $X$$XX$$X XX X$ XXX$$XXXXXXXXX*XXXXX$$ X $$$XXXXXXXXXXX",
"X$  $XX   X$ XX    XX X$ XXXXXXXX$XXXX$OO$XXX$$   X$$ X$XXXXX$XX",
"$$   X    XX  $    XX $   XXXXX$$$X$X$$OO$XX $$   X $ X$XXXXX$XX",
"$    X     X  $    X$     XXXX $$  $$.+++$$X $    X    $$X$XX$$X",
"     X     X       X$     XXXXX $  $$.+++OOX $    X      $$XX  $",
"     X    @@@      $$    $XXX X     $.+++OO      @@@     $$XX   ",
"          @@@      $$    $$XXX       .++++.      @@@     $XX    ",
"          @@       $      $X X.+.   .###++.      @@@      X     ",
"          @@       $      $X X.#+.  .+++++.      @@@      X     ",
"          @@              $$ X.++#. .+++++.       @@            ",
"          @                $  X.++. .+++++.       @@            ",
"          @                $   .+++.++++++.       @@            ",
"                               .++++++++##.        @            ",
"                                .+++++++++.        @            ",
"                                .###++++++.                     ",
"                                 .###+++++.                     ",
"                                 .++++++++.                     ",
"                                 .+++++++#.                     ",
"                                  .++++#&&&  &&&                ",
"                                  .+++++&*&  &*&                ",
"                                  .+++++&*&&&&*&                ",
"                                  .+++++&&&&&&&&                ",
"                                  .++++++&oo&&&                 ",
"                                  .+++++++oo&&                  ",
"                                 .++++++&&&&&&                  ",
"                                 .###+++++&&&&                  ",
"                                 .######++&&&&                  ",
"                                 .+##+++++&&&&                  ",
"                                X.+++++++&&&&&                  ",
"                               XX.++++++++.                     ",
"                               X$.++++++++.                     ",
"                               X$.+++++++++.                    ",
"                  O              .+++++++++.                    ",
"                 OX O            .+++++++++.                    ",
"                  XOO           .++++###+++.XX                  ",
"                  XO            .+++++####+.$X                  ",
"                 OOX            .++++++++++.                    ",
"                  OX  O         .++++++++++.                    ",
"                   OXOO       XXXX++++++++++.                   ",
"     O              XO       XXXXXX+++++++++.    O              ",
"     O              X  O     XX$XXX+++++++++.   OX              ",
"   OOX              X OO     X$ .XX+++++++XX.   OX              ",
"    OX            OO XO      X$ .#X+++++++XXXX OX               ",
"     X             OOX        X .++++++++XXXXXXOX               ",
"    XOO             OX         .+++++####X$$XXX X               ",
"    XO                X O      .+++++++##X+++.$ XO         $X   ",
"    X                 XOO      .+++++++++$+++.  OX    $    XX   ",
"   OOX     XXXX    OO XO       .####+++++++++.   XO   X$   X    ",
"    OX   XXX$      OOOX        .+++++++++++++.  XO     $   X    ",
"     X  XX$          OX  %     .++++####+++++.OOX      X$ XX    ",
"      XXXX$           X  %     .+++++++++++++.OX        X XX    ",
" XXXXXXXXX$          %X  %     .+++++++++++++. X        XXXX    ",
"   $XXXXXX$          %% %%     .+++++++++++++.X         XXXX    ",
"    $XXXX$           X% %%     .++OOO+++O++++.   X  X$   XXX    ",
"     &&&X$      XX$  X%%%%    .++@@OOO++O+++++.  X  X$   XXX    ",
"    &&&&&&  XXX X$   X %%%    .+++OOOOOO++####.  XXXX   o&&   % ",
"   &&&&&&&   XXXXX &&&&&%     .+++OOOOOO++++++. o&XXX &&&&&& %% ",
"   o&&&&&&&    XXXo&&&&&%     .+++OOOOOO++++++.o&&&XX o&&&&&%%  ",
"   oo&&&&&&    XXXoo&&&&&     .++++@+@++++++++.o&&&X  oooo&&&%  "
};

