/* XPM */
static char *tiger_1[] = {
/* columns rows colors chars-per-pixel */
"64 64 12 1",
"  c #FFFFFF",
". c #000000",
"X c #3F2204",
"O c #AC6600",
"o c #CAB2A3",
"x c #FFFAF0",
"v c #647D34",
"c c #9D303B",
"& c #8C8FAE",
"$ c #C0C741",
"g c #584563",
"% c #34859D"
/* pixels */
"                                                                ",
"                                                                ",
"                                                                ",
"                                                                ",
"                                                                ",
"                                                                ",
"                                                                ",
"                                                                ",
"                                                                ",
"                                                                ",
"                                                                ",
"                                                                ",
"                                                                ",
"                                                                ",
"                                                                ",
"                                                                ",
"                                                                ",
"                                                                ",
"                                                                ",
"                                                                ",
"                                                                ",
"                                                                ",
"                                                                ",
"                                                                ",
"                                                                ",
"                                                                ",
"                                                                ",
"                                                                ",
"                                                                ",
"                                                                ",
"                                                                ",
"                                                                ",
"                                                                ",
"                                                                ",
"                                                                ",
"                                                                ",
"                                                                ",
"                  c                                             ",
"                 cv c                                           ",
"                  vcc                                           ",
"                  vc                                            ",
"                 ccv              .......                       ",
"                  cv  c    .... .OOOXOOO. ....                  ",
"                   cvcc   .OOOO. XXX XXX .OOOO.                 ",
"    c               vc   .OOoooOOOOOOOOOOOoooOO.                ",
"    c               v  c .OoooOOOxxOOOxxOOOoooO.                ",
"  ccv               v cc .OoooOOOx.OOO.xOOOoooO.                ",
"   cv             cc vc  .OooOOOOx.OOO.xOOOOooO.                ",
"    v              ccv   .OooOOOOOOOOOOOOOOOooO.                ",
"   vcc              cv    .OoOXXOOOOOOOOOXXOoO.                 ",
"   vc                 v c  ..XOOoo.....ooOOX..          $v      ",
"   v                  vcc   .OXXoo.....ooXXO.      $    vv      ",
"  ccv     vvvv    cc vc     .Xooo.oo.oo.oooX.      v$   v       ",
"   cv   vvv$      cccv       .oooo.....oooo.        $   v       ",
"    v  vv$          cv  %     .ooooooooooo.         v$ vv       ",
"     vvvv$           v  %      ...........  ...      v vv       ",
"vvvvvvvvv$          %v  %       .XOOOOOX.   .X.      vvvv       ",
"  $vvvvvv$          %% %%      .OOOOoOOOO. .O.       vvvv       ",
"   $vvvv$           v% %%     ..XX ooo XX..O. v  v$   vvv       ",
"    &&&v$      vv$  v%%%%    .X.OO.ooo.OO.X.  v  v$   vvv       ",
"   &&&&&&  vvv v$   v %%%    .O.XX.ooo.XX.O.  vvvv   g&&   %    ",
"  &&&&&&&   vvvvv &&&&&%     .X.OO.ooo.OO.X. g&vvv &&&&&& %%    ",
"  g&&&&&&&    vvvg&&&&&%     .o.oo.ooo.oo.o.g&&&vv g&&&&&%%     ",
"  gg&&&&&&    vvvgg&&&&&     ...............g&&&v  gggg&&&%     "
};
